HIERARCHY
ROOT Hips
{
  OFFSET 2.26061 22.2878 23.7974
  CHANNELS 6 Xposition Yposition Zposition Zrotation Xrotation Yrotation
  JOINT LeftUpLeg
  {
    OFFSET 8.64259 1.95398 -2.38835
    CHANNELS 3 Zrotation Xrotation Yrotation
    JOINT LeftLeg
    {
      OFFSET 43.7702 0 0
      CHANNELS 3 Zrotation Xrotation Yrotation
      JOINT LeftFoot
      {
        OFFSET 40.6238 0 0
        CHANNELS 3 Zrotation Xrotation Yrotation
        JOINT LeftToeBase
        {
          OFFSET 12.7242 0 0
          CHANNELS 3 Zrotation Xrotation Yrotation
          End Site
          {
            OFFSET 0 0 0
          }
        }
      }
    }
  }
  JOINT RightUpLeg
  {
    OFFSET -8.2249 1.95398 -2.59336
    CHANNELS 3 Zrotation Xrotation Yrotation
    JOINT RightLeg
    {
      OFFSET 43.5653 0 0
      CHANNELS 3 Zrotation Xrotation Yrotation
      JOINT RightFoot
      {
        OFFSET 40.6238 0 0
        CHANNELS 3 Zrotation Xrotation Yrotation
        JOINT RightToeBase
        {
          OFFSET 12.7242 0 0
          CHANNELS 3 Zrotation Xrotation Yrotation
          End Site
          {
            OFFSET 0 0 0
          }
        }
      }
    }
  }
  JOINT Spine
  {
    OFFSET 0.165834 0.87714 6.61349
    CHANNELS 3 Zrotation Xrotation Yrotation
    JOINT Spine1
    {
      OFFSET 7.38963 1.71661e-005 0
      CHANNELS 3 Zrotation Xrotation Yrotation
      JOINT Spine2
      {
        OFFSET 11.9445 1.14441e-005 0
        CHANNELS 3 Zrotation Xrotation Yrotation
        JOINT Spine3
        {
          OFFSET 14.7254 4.19617e-005 0
          CHANNELS 3 Zrotation Xrotation Yrotation
          JOINT Spine4
          {
            OFFSET 10.9679 0 0
            CHANNELS 3 Zrotation Xrotation Yrotation
            JOINT RightShoulder
            {
              OFFSET 2.46616 -1.6653 3.69651
              CHANNELS 3 Zrotation Xrotation Yrotation
              JOINT RightArm
              {
                OFFSET 13.0012 0 0
                CHANNELS 3 Zrotation Xrotation Yrotation
                JOINT RightForeArm
                {
                  OFFSET 28.7848 1.52588e-005 0
                  CHANNELS 3 Zrotation Xrotation Yrotation
                  JOINT RightHand
                  {
                    OFFSET 26.5688 1.52588e-005 0
                    CHANNELS 3 Zrotation Xrotation Yrotation
                    End Site
                    {
                      OFFSET 0 0 0
                    }
                  }
                }
              }
            }
            JOINT LeftShoulder
            {
              OFFSET 2.38034 -1.29275 -3.7523
              CHANNELS 3 Zrotation Xrotation Yrotation
              JOINT LeftArm
              {
                OFFSET 16.3182 6.10351e-005 0
                CHANNELS 3 Zrotation Xrotation Yrotation
                JOINT LeftForeArm
                {
                  OFFSET 27.0901 0 0
                  CHANNELS 3 Zrotation Xrotation Yrotation
                  JOINT LeftHand
                  {
                    OFFSET 24.5451 1.52588e-005 0
                    CHANNELS 3 Zrotation Xrotation Yrotation
                    End Site
                    {
                      OFFSET 0 0 0
                    }
                  }
                }
              }
            }
            JOINT Neck
            {
              OFFSET 5.0226 -0.0266342 0
              CHANNELS 3 Zrotation Xrotation Yrotation
              JOINT Head
              {
                OFFSET 6.69363 2.86102e-005 0
                CHANNELS 3 Zrotation Xrotation Yrotation
                End Site
                {
                  OFFSET 0 0 0
                }
              }
            }
          }
        }
      }
    }
  }
}
MOTION
Frames:	9
Frame Time:	0.0416667
-54.1165 59.4426 -338.725 -48.1695 69.2168 48.9882 103.225 -1.20873 -158.695 -175.024 -0.367873 87.7564 84.295 36.8624 49.6438 -171.915 22.6831 -72.0004 -36.7393 -38.2007 -130.704 -97.1301 8.41849 44.7829 118.715 -22.3097 3.65005 168.376 -34.4445 -21.4902 1.54246 -2.24589 -101.831 30.3046 -4.45999 -23.5171 18.4346 -5.46263 -23.3161 -2.4248 2.60164 -23.779 17.5878 2.60163 -23.779 110.32 -66.1591 -71.4486 119.042 33.6027 -0.246614 177.07 -14.7058 -30.0584 -0.0633933 -7.43363 -58.694 15.1621 -44.043 -143.174 82.7898 24.5077 -96.6656 -8.11602 37.7457 -54.1863 1.45815 3.08792 74.99 99.2543 -1.47145 -52.2781 -178.035 -58.1558 45.6415 
-54.1328 59.3372 -338.861 -48.1124 69.1176 48.8636 104.803 -2.1572 -158.758 -172.982 -0.112764 87.3617 85.665 37.1133 48.6963 -171.779 22.8478 -71.9797 -36.4771 -38.2444 -130.334 -97.3316 8.35227 44.574 119.224 -22.5295 3.62643 168.316 -34.4176 -21.4993 1.5325 -2.21491 -101.874 30.2331 -4.49762 -23.5939 18.3619 -5.50331 -23.3914 -2.48653 2.58659 -23.863 17.5261 2.58661 -23.863 109.653 -65.9728 -72.2866 118.956 33.827 -0.220513 176.935 -14.9763 -30.0999 0.0521877 -7.48771 -58.5903 14.5632 -43.534 -143.382 82.256 24.6121 -96.999 -8.13972 38.2227 -54.1159 1.69184 3.26916 74.7806 95.7529 -3.93214 -52.8467 -176.853 -58.5191 43.8175 
-54.1796 59.041 -339.244 -47.9513 68.8367 48.5028 107.871 -6.98642 -158.883 -158.93 3.45495 84.9595 95.1822 37.507 32.9679 -171.371 23.343 -71.9193 -35.6881 -38.3466 -129.228 -97.8652 8.17968 43.972 120.729 -23.1902 3.56764 168.12 -34.2757 -21.5035 1.50263 -2.12766 -101.997 30.0315 -4.60681 -23.8089 18.1569 -5.62108 -23.6022 -2.66047 2.54069 -24.0994 17.3522 2.54069 -24.0994 107.829 -65.4355 -74.5956 118.704 34.4783 -0.149257 176.51 -15.7897 -30.2287 0.401092 -7.65205 -58.2963 12.8348 -42.0554 -143.97 80.6921 24.9779 -97.9519 -8.23418 39.625 -53.8997 2.35892 3.77858 74.1667 -179.884 37.2498 -83.8434 161.099 -48.425 84.8312 
-54.253 58.5818 -339.831 -47.7029 68.4012 47.9187 112.214 -14.8002 -158.755 -153.992 10.0468 80.172 96.983 38.1414 29.4839 -170.673 24.2051 -71.8206 -34.3362 -38.4297 -127.361 -98.5665 7.95282 43.0126 123.272 -24.3428 3.52126 167.714 -33.8304 -21.4384 1.45123 -1.99551 -102.181 29.7252 -4.78159 -24.127 17.8457 -5.80854 -23.9134 -2.92531 2.45976 -24.4526 17.0873 2.45976 -24.4526 105.226 -64.604 -77.9392 118.283 35.5153 -0.0369765 175.712 -17.2176 -30.4694 1.01114 -7.9427 -57.8482 10.102 -39.6914 -144.855 78.1646 25.7542 -99.4183 -8.45107 41.92 -53.525 3.40778 4.55307 73.1603 -87.6701 5.30568 -126.694 117.26 -29.4755 97.5832 
-54.3489 57.9734 -340.583 -47.3813 67.8388 47.1136 117.513 -23.8225 -158.162 -154.215 18.1567 74.8052 93.9354 39.5247 33.8837 -169.631 25.5312 -71.683 -32.3721 -38.3658 -124.691 -99.1906 7.71554 41.7247 127.066 -26.1301 3.61548 166.884 -32.7767 -21.2239 1.38874 -1.78583 -102.462 29.2426 -5.01523 -24.6254 17.355 -6.062 -24.4029 -3.34258 2.37115 -24.9947 16.6701 2.37116 -24.9947 101.532 -63.2031 -82.7996 117.697 36.971 0.168517 174.347 -19.447 -30.9015 1.94921 -8.39647 -57.3054 6.34213 -36.1498 -145.825 74.3776 27.2938 -101.395 -8.87925 45.1831 -52.9039 4.78724 5.52029 71.7674 -91.5585 6.34374 -123.222 117.92 -34.2991 97.3806 
-54.4644 57.198 -341.466 -46.9982 67.1759 46.0806 123.287 -32.9145 -157.101 -154.48 26.6093 69.3112 89.9937 40.7199 39.55 -168.146 27.5026 -71.5102 -29.7913 -37.9586 -121.234 -99.3708 7.44298 40.1199 132.642 -28.8551 4.15809 165.104 -30.7402 -20.8259 1.14336 -1.39397 -103.998 27.6675 -6.14856 -27.4558 15.7092 -7.29953 -27.1913 -4.33274 1.98938 -28.0228 15.6799 1.9894 -28.0228 95.4204 -58.6177 -91.9721 116.444 39.65 0.0297825 172.123 -22.6542 -31.5615 3.33433 -9.07673 -56.7647 -4.49614 -26.8889 -151.824 68.6234 35.6941 -106.964 -14.0488 56.1534 -45.1662 6.2729 6.49156 70.203 -93.549 0.394378 -115.339 116.901 -39.17 97.2586 
-54.6027 56.1802 -342.451 -46.562 66.4381 44.8045 128.961 -41.1429 -155.89 -154.062 34.206 63.5712 86.1309 41.5856 45.0445 -166.063 30.4476 -71.3185 -26.7346 -36.8988 -117.185 -98.4168 6.87202 38.1676 141.344 -33.2172 5.98236 161.023 -27.4245 -20.4037 1.64525 0.00273712 -89.9016 30.5876 3.28312 -0.859064 19.1979 3.21344 -0.998258 -6.24949 3.4983 0.179349 13.7631 3.49835 0.179376 45.5755 -43.0544 -163.43 26.8047 67.3429 96.0469 169.399 -23.4935 -31.0602 5.4681 -10.069 -56.1956 -62.5151 1.08048 -72.3005 -55.0068 2.53807 -35.9817 8.21748 4.48049 -90.6633 6.0824 6.10045 67.2038 178.867 -64.6714 -160.72 75.6752 -59.5013 75.1409 
-54.8131 54.7604 -343.501 -46.0777 65.65 43.2619 133.703 -47.9566 -155.314 -153.333 40.2483 57.5764 82.4898 42.1912 50.1963 -163.133 34.9992 -71.1559 -23.7675 -34.7536 -113.357 -94.5195 4.61488 35.6823 157.303 -41.189 12.3637 150.755 -23.3933 -20.9944 2.99261 2.17505 -70.5891 23.536 15.2217 34.9724 11.392 16.6286 34.3713 -6.59468 5.19851 37.5796 13.418 5.19851 37.5797 29.7894 -23.881 164.48 2.32325 37.2955 116.577 163.26 -29.1212 -31.9879 8.42983 -11.4871 -56.6407 -98.9128 14.7742 9.2908 -132.053 -30.2902 -84.861 48.0266 -68.71 -17.1936 7.14183 6.25116 62.9383 23.893 -29.5492 95.9062 7.90968 -65.2429 25.7223 
-55.2867 53.097 -344.472 -45.5503 64.8339 41.4298 136.634 -53.0237 -156.312 -152.628 44.5898 51.8058 78.8079 42.1817 55.0543 -158.985 42.415 -71.1731 -22.0733 -32.2158 -111.859 -84.6985 -4.0234 32.6215 -164.555 -54.6622 39.3735 125.829 -22.6604 -28.8371 1.18655 19.9857 -104.187 -14.0551 -1.11823 -27.4266 -26.0079 -2.27897 -27.3602 -46.3577 6.88019 -26.6365 -26.3451 6.88021 -26.6365 -116.546 64.0289 116.026 -117.936 -73.9401 87.5316 140.014 -50.5557 -57.101 11.0361 -14.0506 -59.9236 -139.669 -23.4512 -7.82521 121.953 -53.5953 127.753 7.92157 -36.9011 -52.2494 12.036 8.94937 59.6669 -2.43394 -39.7916 44.0773 39.977 -37.2729 17.4764 
